<?xml version="1.0" standalone="no"?>
<!DOCTYPE svg PUBLIC "-//W3C//DTD SVG 20010904//EN"
 "http://www.w3.org/TR/2001/REC-SVG-20010904/DTD/svg10.dtd">
<svg version="1.0" xmlns="http://www.w3.org/2000/svg"
 width="300.000000pt" height="184.000000pt" viewBox="0 0 300.000000 184.000000"
 preserveAspectRatio="xMidYMid meet">
<g transform="translate(0.000000,184.000000) scale(0.100000,-0.100000)"
fill="#000000" stroke="none">
<path d="M700 1015 c-22 -24 -23 -25 -3 -25 11 0 25 10 31 25 6 14 8 25 4 25
-5 0 -19 -11 -32 -25z"/>
<path d="M742 1020 c-16 -26 -15 -30 3 -30 8 0 15 4 15 9 0 5 3 16 6 25 9 23
-9 20 -24 -4z"/>
<path d="M780 1013 c0 -14 6 -23 16 -23 11 0 14 6 9 23 l-6 22 17 -22 c9 -13
23 -23 32 -23 12 0 10 5 -7 24 -29 31 -61 30 -61 -1z"/>
<path d="M994 1021 c-32 -14 -64 -60 -64 -92 0 -17 11 -41 29 -61 24 -27 36
-33 70 -33 42 0 79 24 67 43 -4 7 -17 5 -37 -5 -56 -28 -101 16 -85 82 9 35
40 49 79 36 34 -12 56 -1 34 17 -20 17 -68 23 -93 13z"/>
<path d="M1130 930 c0 -89 2 -98 18 -94 14 4 16 14 14 48 -2 24 -2 54 0 67 3
21 6 19 32 -25 l29 -49 26 47 c14 25 28 46 31 46 3 0 3 -29 2 -65 -3 -58 -2
-65 15 -65 16 0 18 9 16 92 -2 109 -18 123 -59 52 -14 -24 -28 -44 -30 -44 -2
0 -15 18 -30 39 -14 21 -34 41 -45 44 -18 5 -19 -1 -19 -93z"/>
<path d="M1350 930 l0 -95 70 0 c61 0 70 2 70 18 0 17 -7 18 -55 15 -55 -3
-55 -3 -55 25 0 28 1 28 47 26 40 -3 48 0 51 15 4 17 -1 18 -47 14 -50 -5 -51
-4 -51 22 0 26 1 27 55 22 49 -4 55 -2 55 14 0 17 -8 19 -70 19 l-70 0 0 -95z"/>
<path d="M1608 1015 c-15 -8 -32 -24 -38 -35 -13 -24 -13 -76 0 -101 16 -29
68 -52 103 -45 44 9 57 24 57 67 0 39 0 39 -40 39 -29 0 -40 -4 -40 -15 0 -9
9 -15 25 -15 35 0 34 -35 -1 -44 -56 -14 -102 50 -70 98 20 31 49 40 77 26 15
-9 24 -9 32 -1 29 29 -61 51 -105 26z"/>
<path d="M660 955 c0 -18 5 -25 20 -25 11 0 20 4 20 9 0 5 3 16 6 25 5 12 0
16 -20 16 -21 0 -26 -5 -26 -25z"/>
<path d="M720 971 c0 -5 -3 -16 -6 -25 -5 -12 0 -16 19 -16 18 0 26 6 29 25 4
21 1 25 -18 25 -13 0 -24 -4 -24 -9z"/>
<path d="M780 955 c0 -20 5 -25 25 -25 26 0 29 7 19 34 -10 27 -44 20 -44 -9z"/>
<path d="M838 955 c3 -16 11 -25 23 -25 14 0 19 7 19 25 0 20 -5 25 -24 25
-19 0 -22 -4 -18 -25z"/>
<path d="M1765 911 c0 -58 3 -71 18 -75 14 -3 17 3 17 39 0 41 18 75 41 75 5
0 9 7 9 15 0 8 -7 15 -15 15 -9 0 -18 -7 -21 -15 -4 -8 -10 -15 -15 -15 -4 0
-6 7 -3 15 4 10 0 15 -12 15 -17 0 -19 -8 -19 -69z"/>
<path d="M1885 955 c-49 -48 -19 -119 50 -119 68 0 100 77 52 122 -31 29 -72
28 -102 -3z m85 -20 c17 -20 4 -62 -21 -70 -15 -5 -28 -1 -42 14 -18 17 -19
24 -9 46 13 29 52 34 72 10z"/>
<path d="M2040 915 c0 -54 3 -66 20 -75 12 -6 31 -8 43 -4 12 4 30 7 40 5 15
-2 17 7 17 68 0 56 -3 71 -15 71 -11 0 -15 -12 -15 -49 0 -52 -16 -76 -44 -65
-12 5 -16 19 -16 60 0 41 -4 54 -15 54 -12 0 -15 -14 -15 -65z"/>
<path d="M2197 883 c1 -80 4 -99 17 -101 12 -3 16 5 16 32 0 34 1 35 25 24 60
-27 114 73 66 121 -23 23 -61 27 -79 9 -9 -9 -12 -9 -12 0 0 7 -8 12 -17 12
-16 0 -18 -11 -16 -97z m103 53 c28 -35 -11 -93 -47 -70 -36 22 -23 84 17 84
10 0 23 -7 30 -14z"/>
<path d="M662 898 c2 -15 11 -24 27 -26 19 -3 22 0 17 13 -3 9 -6 21 -6 26 0
5 -9 9 -21 9 -15 0 -20 -5 -17 -22z"/>
<path d="M718 895 c3 -15 11 -25 22 -25 11 0 19 10 22 25 5 22 2 25 -22 25
-24 0 -27 -3 -22 -25z"/>
<path d="M780 895 c0 -18 5 -25 20 -25 11 0 20 4 20 9 0 5 3 16 6 25 5 12 0
16 -20 16 -21 0 -26 -5 -26 -25z"/>
<path d="M837 894 c-4 -21 -1 -25 17 -22 28 4 36 48 8 48 -13 0 -21 -9 -25
-26z"/>
<path d="M704 841 c9 -10 27 -18 39 -18 16 0 23 5 23 18 0 11 -7 19 -18 19
-12 0 -16 -5 -12 -17 5 -17 5 -17 -9 0 -8 9 -20 17 -27 17 -9 0 -8 -5 4 -19z"/>
<path d="M780 839 c0 -18 2 -19 15 -9 8 7 15 16 15 21 0 5 -7 9 -15 9 -9 0
-15 -9 -15 -21z"/>
<path d="M812 840 c-7 -11 -9 -20 -6 -20 3 0 17 9 31 20 22 17 23 20 7 20 -11
0 -25 -9 -32 -20z"/>
</g>
</svg>
