<?xml version="1.0" standalone="no"?>
<!DOCTYPE svg PUBLIC "-//W3C//DTD SVG 20010904//EN"
 "http://www.w3.org/TR/2001/REC-SVG-20010904/DTD/svg10.dtd">
<svg version="1.0" xmlns="http://www.w3.org/2000/svg"
 width="946.000000pt" height="492.000000pt" viewBox="0 0 946.000000 492.000000"
 preserveAspectRatio="xMidYMid meet">
<g transform="translate(0.000000,492.000000) scale(0.100000,-0.100000)"
fill="#000000" stroke="none">
<path d="M551 4890 l-384 -5 -79 -92 -79 -93 0 -2252 0 -2252 88 -88 88 -87
4055 -1 c2230 -1 4271 -2 4534 -1 l479 1 103 102 104 102 0 2236 0 2235 -98
98 -97 97 -4165 3 c-2291 1 -4338 0 -4549 -3z m8334 -2440 l0 -1855 -4159 -3
-4158 -2 4 1847 c2 1017 7 1854 11 1861 7 10 844 12 4155 10 l4147 -3 0 -1855z"/>
<path d="M4526 3589 c-286 -33 -489 -158 -587 -362 -56 -117 -109 -337 -81
-337 4 0 140 -11 302 -25 161 -14 294 -24 296 -22 1 1 11 40 23 86 36 144 102
217 216 241 171 35 318 -78 317 -243 0 -137 -99 -254 -407 -489 -196 -148
-378 -302 -466 -394 -181 -188 -292 -408 -334 -656 l-6 -38 926 0 925 0 0 250
0 250 -475 0 c-287 0 -475 4 -475 9 0 16 167 152 300 246 268 188 424 329 509
459 226 346 123 775 -227 942 -89 42 -193 69 -324 83 -110 12 -329 12 -432 0z"/>
<path d="M6815 3586 c-184 -27 -304 -67 -438 -147 -144 -85 -296 -262 -365
-426 -121 -287 -134 -698 -31 -1018 68 -215 247 -442 430 -549 68 -39 200 -85
309 -107 126 -26 403 -36 537 -19 326 41 558 193 702 460 40 76 101 242 101
277 0 16 -42 32 -288 106 -159 48 -293 87 -298 87 -5 0 -17 -30 -27 -67 -39
-147 -124 -271 -220 -317 -74 -36 -188 -51 -274 -36 -255 44 -351 215 -351
625 0 280 41 411 166 527 47 43 75 60 133 79 217 71 444 -25 515 -218 9 -26
21 -52 25 -57 4 -5 51 1 106 13 54 12 186 42 293 65 l195 43 -2 27 c-2 36 -81
200 -131 273 -181 267 -417 378 -822 388 -116 3 -205 0 -265 -9z"/>
<path d="M1560 2456 l0 -1106 569 0 c518 0 579 2 683 19 286 50 436 135 587
335 149 197 195 374 195 746 0 203 -3 237 -26 345 -56 265 -173 465 -347 594
-87 65 -172 104 -297 138 l-99 27 -632 4 -633 3 0 -1105z m975 594 c149 -21
260 -90 308 -193 47 -100 59 -170 64 -372 8 -290 -22 -426 -116 -528 -73 -79
-181 -107 -417 -107 l-124 0 0 605 0 605 108 0 c59 0 139 -5 177 -10z"/>
</g>
</svg>
